# xmcd
#
# Track frame offsets:
#	150
#	19645
#	35275
#	53990
#	68792
#	85680
#	102837
#	121107
#	138712
#	158200
#	174822
#	198665
#
# Disc length: 2949 seconds
#
# Revision: 1
# Processed by: cddbd v1.5.1PL0 Copyright (c) Steve Scherf et al.
# Submitted via: CDex 1.50Beta5
#
DISCID=960b830c
DTITLE=柳ジョージ - 雨に泣いてる…〜SUPER SELECTION・12〜
DYEAR=1989
DGENRE=Pop
TTITLE0=雨に泣いてる
TTITLE1=FENCEの向うのアメリカ
TTITLE2=微笑の法則
TTITLE3=酔って候
TTITLE4=時は流れて
TTITLE5=クロス・アイド・ウーマン
TTITLE6=祭りばやしが聞こえるのテーマ
TTITLE7=ホエン・ザ・ムーンライト・アップ・ザ・ナイト
TTITLE8=同じ時代に
TTITLE9=遺言
TTITLE10=本牧綺談
TTITLE11=プリズナー
EXTD=
EXTT0=
EXTT1=
EXTT2=
EXTT3=
EXTT4=
EXTT5=
EXTT6=
EXTT7=
EXTT8=
EXTT9=
EXTT10=
EXTT11=
PLAYORDER=
